<mxfile host="app.diagrams.net" modified="2020-12-24T08:29:39.672Z" agent="5.0 (Windows NT 10.0; Win64; x64) AppleWebKit/537.36 (KHTML, like Gecko) Chrome/87.0.4280.88 Safari/537.36" etag="xdlJ0bBDs9iAauL4_Ouh" version="14.1.2" type="github">
  <diagram id="oBFxLRTFSiwSphZ9xtob" name="Page-1">
    <mxGraphModel dx="3197" dy="1178" grid="1" gridSize="10" guides="1" tooltips="1" connect="1" arrows="1" fold="1" page="1" pageScale="1" pageWidth="827" pageHeight="1169" math="0" shadow="0">
      <root>
        <mxCell id="0" />
        <mxCell id="1" parent="0" />
        <mxCell id="Nt5zldpZcJnzgQMrTcaI-1" value="" style="edgeStyle=orthogonalEdgeStyle;rounded=0;orthogonalLoop=1;jettySize=auto;html=1;" edge="1" parent="1" source="4n1jHQFG5qLO6Pfqfd-5-2" target="4n1jHQFG5qLO6Pfqfd-5-3">
          <mxGeometry relative="1" as="geometry" />
        </mxCell>
        <mxCell id="4n1jHQFG5qLO6Pfqfd-5-2" value="&lt;span style=&quot;font-family: &amp;#34;comic sans ms&amp;#34; ; font-size: 14px&quot;&gt;Born in a&lt;/span&gt;&lt;br style=&quot;font-family: &amp;#34;comic sans ms&amp;#34; ; font-size: 14px&quot;&gt;&lt;span style=&quot;font-family: &amp;#34;comic sans ms&amp;#34; ; font-size: 14px&quot;&gt;wealthy family&lt;/span&gt;" style="rounded=1;whiteSpace=wrap;html=1;" parent="1" vertex="1">
          <mxGeometry x="240" y="130" width="120" height="60" as="geometry" />
        </mxCell>
        <mxCell id="4n1jHQFG5qLO6Pfqfd-5-10" value="" style="edgeStyle=orthogonalEdgeStyle;rounded=0;orthogonalLoop=1;jettySize=auto;html=1;fontFamily=Comic Sans MS;fontSize=14;" parent="1" source="4n1jHQFG5qLO6Pfqfd-5-3" target="4n1jHQFG5qLO6Pfqfd-5-8" edge="1">
          <mxGeometry relative="1" as="geometry" />
        </mxCell>
        <mxCell id="4n1jHQFG5qLO6Pfqfd-5-16" value="" style="edgeStyle=orthogonalEdgeStyle;rounded=0;orthogonalLoop=1;jettySize=auto;html=1;fontFamily=Comic Sans MS;fontSize=14;" parent="1" source="4n1jHQFG5qLO6Pfqfd-5-3" target="4n1jHQFG5qLO6Pfqfd-5-4" edge="1">
          <mxGeometry relative="1" as="geometry" />
        </mxCell>
        <mxCell id="4n1jHQFG5qLO6Pfqfd-5-3" value="&lt;span style=&quot;color: rgb(51 , 51 , 51) ; font-family: &amp;#34;comic sans ms&amp;#34; ; font-size: 15px ; background-color: rgb(255 , 255 , 255)&quot;&gt;Eton College&lt;/span&gt;" style="rounded=1;whiteSpace=wrap;html=1;" parent="1" vertex="1">
          <mxGeometry x="240" y="240" width="120" height="60" as="geometry" />
        </mxCell>
        <mxCell id="4n1jHQFG5qLO6Pfqfd-5-12" value="" style="edgeStyle=orthogonalEdgeStyle;rounded=0;orthogonalLoop=1;jettySize=auto;html=1;fontFamily=Comic Sans MS;fontSize=14;" parent="1" source="4n1jHQFG5qLO6Pfqfd-5-4" target="4n1jHQFG5qLO6Pfqfd-5-11" edge="1">
          <mxGeometry relative="1" as="geometry" />
        </mxCell>
        <mxCell id="4n1jHQFG5qLO6Pfqfd-5-4" value="&lt;span style=&quot;font-family: &amp;#34;comic sans ms&amp;#34; ; font-size: 14px&quot;&gt;Oxford&lt;/span&gt;" style="rounded=1;whiteSpace=wrap;html=1;" parent="1" vertex="1">
          <mxGeometry x="240" y="350" width="120" height="60" as="geometry" />
        </mxCell>
        <mxCell id="4n1jHQFG5qLO6Pfqfd-5-8" value="Mad Shelley" style="rounded=1;whiteSpace=wrap;html=1;fontFamily=Comic Sans MS;fontSize=14;" parent="1" vertex="1">
          <mxGeometry x="450" y="240" width="120" height="60" as="geometry" />
        </mxCell>
        <mxCell id="4n1jHQFG5qLO6Pfqfd-5-19" value="" style="edgeStyle=orthogonalEdgeStyle;rounded=0;orthogonalLoop=1;jettySize=auto;html=1;fontFamily=Comic Sans MS;fontSize=14;" parent="1" source="4n1jHQFG5qLO6Pfqfd-5-11" target="4n1jHQFG5qLO6Pfqfd-5-18" edge="1">
          <mxGeometry relative="1" as="geometry" />
        </mxCell>
        <mxCell id="4n1jHQFG5qLO6Pfqfd-5-11" value="The Necessity of Atheism" style="rounded=1;whiteSpace=wrap;html=1;fontFamily=Comic Sans MS;fontSize=14;" parent="1" vertex="1">
          <mxGeometry x="450" y="350" width="120" height="60" as="geometry" />
        </mxCell>
        <mxCell id="4n1jHQFG5qLO6Pfqfd-5-18" value="Expelled to leave the school&lt;br&gt;Disowned by his father" style="rounded=1;whiteSpace=wrap;html=1;fontFamily=Comic Sans MS;fontSize=14;" parent="1" vertex="1">
          <mxGeometry x="240" y="470" width="330" height="60" as="geometry" />
        </mxCell>
        <mxCell id="Nt5zldpZcJnzgQMrTcaI-4" value="" style="edgeStyle=orthogonalEdgeStyle;rounded=0;orthogonalLoop=1;jettySize=auto;html=1;" edge="1" parent="1" source="Nt5zldpZcJnzgQMrTcaI-2" target="4n1jHQFG5qLO6Pfqfd-5-2">
          <mxGeometry relative="1" as="geometry" />
        </mxCell>
        <mxCell id="Nt5zldpZcJnzgQMrTcaI-2" value="世袭从男爵的家庭&lt;br&gt;父母思想都陈腐庸俗&lt;br&gt;雪莱自幼与父母不亲" style="rounded=0;whiteSpace=wrap;html=1;" vertex="1" parent="1">
          <mxGeometry x="50" y="130" width="120" height="60" as="geometry" />
        </mxCell>
        <mxCell id="Nt5zldpZcJnzgQMrTcaI-7" value="" style="edgeStyle=orthogonalEdgeStyle;rounded=0;orthogonalLoop=1;jettySize=auto;html=1;" edge="1" parent="1" source="Nt5zldpZcJnzgQMrTcaI-6" target="4n1jHQFG5qLO6Pfqfd-5-3">
          <mxGeometry relative="1" as="geometry" />
        </mxCell>
        <mxCell id="Nt5zldpZcJnzgQMrTcaI-6" value="英国九大公学之一的&lt;br&gt;伊顿公学&lt;br&gt;常常被同学欺负" style="rounded=0;whiteSpace=wrap;html=1;" vertex="1" parent="1">
          <mxGeometry x="50" y="240" width="120" height="60" as="geometry" />
        </mxCell>
        <mxCell id="Nt5zldpZcJnzgQMrTcaI-9" value="" style="edgeStyle=orthogonalEdgeStyle;rounded=0;orthogonalLoop=1;jettySize=auto;html=1;" edge="1" parent="1" source="Nt5zldpZcJnzgQMrTcaI-8" target="4n1jHQFG5qLO6Pfqfd-5-8">
          <mxGeometry relative="1" as="geometry" />
        </mxCell>
        <mxCell id="Nt5zldpZcJnzgQMrTcaI-11" value="" style="edgeStyle=orthogonalEdgeStyle;rounded=0;orthogonalLoop=1;jettySize=auto;html=1;" edge="1" parent="1" source="Nt5zldpZcJnzgQMrTcaI-8" target="Nt5zldpZcJnzgQMrTcaI-10">
          <mxGeometry relative="1" as="geometry" />
        </mxCell>
        <mxCell id="Nt5zldpZcJnzgQMrTcaI-8" value="&lt;span style=&quot;color: rgb(18 , 18 , 18) ; font-family: , &amp;#34;blinkmacsystemfont&amp;#34; , &amp;#34;helvetica neue&amp;#34; , &amp;#34;pingfang sc&amp;#34; , &amp;#34;microsoft yahei&amp;#34; , &amp;#34;source han sans sc&amp;#34; , &amp;#34;noto sans cjk sc&amp;#34; , &amp;#34;wenquanyi micro hei&amp;#34; , sans-serif ; background-color: rgb(255 , 255 , 255)&quot;&gt;&lt;font style=&quot;font-size: 12px&quot;&gt;拒绝服从学长学弟制 而得「疯狂雪莱」之称&lt;/font&gt;&lt;/span&gt;" style="rounded=0;whiteSpace=wrap;html=1;" vertex="1" parent="1">
          <mxGeometry x="450" y="130" width="120" height="60" as="geometry" />
        </mxCell>
        <mxCell id="Nt5zldpZcJnzgQMrTcaI-10" value="特立独行的反抗精神" style="rounded=0;whiteSpace=wrap;html=1;" vertex="1" parent="1">
          <mxGeometry x="620" y="130" width="120" height="60" as="geometry" />
        </mxCell>
        <mxCell id="Nt5zldpZcJnzgQMrTcaI-13" value="" style="edgeStyle=orthogonalEdgeStyle;rounded=0;orthogonalLoop=1;jettySize=auto;html=1;" edge="1" parent="1" source="Nt5zldpZcJnzgQMrTcaI-12" target="4n1jHQFG5qLO6Pfqfd-5-11">
          <mxGeometry relative="1" as="geometry" />
        </mxCell>
        <mxCell id="Nt5zldpZcJnzgQMrTcaI-17" value="" style="edgeStyle=orthogonalEdgeStyle;rounded=0;orthogonalLoop=1;jettySize=auto;html=1;" edge="1" parent="1" source="Nt5zldpZcJnzgQMrTcaI-12" target="Nt5zldpZcJnzgQMrTcaI-14">
          <mxGeometry relative="1" as="geometry" />
        </mxCell>
        <mxCell id="Nt5zldpZcJnzgQMrTcaI-12" value="和好友写下并散发反基督教的&lt;br&gt;《论无神论的必然性》" style="rounded=0;whiteSpace=wrap;html=1;" vertex="1" parent="1">
          <mxGeometry x="630" y="350" width="120" height="60" as="geometry" />
        </mxCell>
        <mxCell id="Nt5zldpZcJnzgQMrTcaI-15" value="" style="edgeStyle=orthogonalEdgeStyle;rounded=0;orthogonalLoop=1;jettySize=auto;html=1;" edge="1" parent="1" source="Nt5zldpZcJnzgQMrTcaI-14" target="4n1jHQFG5qLO6Pfqfd-5-18">
          <mxGeometry relative="1" as="geometry" />
        </mxCell>
        <mxCell id="Nt5zldpZcJnzgQMrTcaI-14" value="遭到学校开除&lt;br&gt;被父亲赶出家门" style="rounded=0;whiteSpace=wrap;html=1;" vertex="1" parent="1">
          <mxGeometry x="630" y="470" width="120" height="60" as="geometry" />
        </mxCell>
        <mxCell id="Nt5zldpZcJnzgQMrTcaI-20" style="edgeStyle=orthogonalEdgeStyle;rounded=0;orthogonalLoop=1;jettySize=auto;html=1;exitX=0;exitY=0.5;exitDx=0;exitDy=0;" edge="1" parent="1" source="Nt5zldpZcJnzgQMrTcaI-16">
          <mxGeometry relative="1" as="geometry">
            <mxPoint x="690" y="440" as="targetPoint" />
          </mxGeometry>
        </mxCell>
        <mxCell id="Nt5zldpZcJnzgQMrTcaI-16" value="当时的英国，神权思想禁锢" style="rounded=0;whiteSpace=wrap;html=1;" vertex="1" parent="1">
          <mxGeometry x="770" y="410" width="120" height="60" as="geometry" />
        </mxCell>
        <mxCell id="Nt5zldpZcJnzgQMrTcaI-52" value="" style="edgeStyle=orthogonalEdgeStyle;rounded=0;orthogonalLoop=1;jettySize=auto;html=1;fontSize=18;" edge="1" parent="1" source="Nt5zldpZcJnzgQMrTcaI-24" target="Nt5zldpZcJnzgQMrTcaI-28">
          <mxGeometry relative="1" as="geometry" />
        </mxCell>
        <mxCell id="Nt5zldpZcJnzgQMrTcaI-24" value="&lt;span style=&quot;font-family: &amp;#34;roboto&amp;#34; , , &amp;#34;helvetica neue&amp;#34; , &amp;#34;helvetica&amp;#34; , &amp;#34;arial&amp;#34; , sans-serif ; font-size: 16px&quot;&gt;哈丽雅特&lt;/span&gt;" style="shape=process;whiteSpace=wrap;html=1;backgroundOutline=1;" vertex="1" parent="1">
          <mxGeometry x="652.5" y="870" width="120" height="60" as="geometry" />
        </mxCell>
        <mxCell id="Nt5zldpZcJnzgQMrTcaI-30" value="" style="edgeStyle=orthogonalEdgeStyle;rounded=0;orthogonalLoop=1;jettySize=auto;html=1;" edge="1" parent="1" source="Nt5zldpZcJnzgQMrTcaI-25" target="Nt5zldpZcJnzgQMrTcaI-28">
          <mxGeometry relative="1" as="geometry" />
        </mxCell>
        <mxCell id="Nt5zldpZcJnzgQMrTcaI-25" value="Expelled to leave the school&lt;br&gt;Disowned by his father" style="rounded=1;whiteSpace=wrap;html=1;fontFamily=Comic Sans MS;fontSize=14;" vertex="1" parent="1">
          <mxGeometry x="240" y="710" width="330" height="60" as="geometry" />
        </mxCell>
        <mxCell id="Nt5zldpZcJnzgQMrTcaI-51" value="" style="edgeStyle=orthogonalEdgeStyle;rounded=0;orthogonalLoop=1;jettySize=auto;html=1;fontSize=18;" edge="1" parent="1" source="Nt5zldpZcJnzgQMrTcaI-26" target="Nt5zldpZcJnzgQMrTcaI-24">
          <mxGeometry relative="1" as="geometry" />
        </mxCell>
        <mxCell id="Nt5zldpZcJnzgQMrTcaI-26" value="&lt;span style=&quot;font-family: &amp;#34;roboto&amp;#34; , , &amp;#34;helvetica neue&amp;#34; , &amp;#34;helvetica&amp;#34; , &amp;#34;arial&amp;#34; , sans-serif ; font-size: 16px&quot;&gt;为了讨好雪莱，哈丽雅特模仿、发表他的各种观点，甚至是无神论。结果可想而知。&lt;br&gt;哈丽雅特向雪莱哭诉自己受到了父亲、学校的虐待。&lt;/span&gt;" style="rounded=0;whiteSpace=wrap;html=1;" vertex="1" parent="1">
          <mxGeometry x="1002.5" y="825" width="220" height="150" as="geometry" />
        </mxCell>
        <mxCell id="Nt5zldpZcJnzgQMrTcaI-54" value="" style="edgeStyle=orthogonalEdgeStyle;rounded=0;orthogonalLoop=1;jettySize=auto;html=1;fontSize=18;" edge="1" parent="1" source="Nt5zldpZcJnzgQMrTcaI-28" target="Nt5zldpZcJnzgQMrTcaI-33">
          <mxGeometry relative="1" as="geometry" />
        </mxCell>
        <mxCell id="Nt5zldpZcJnzgQMrTcaI-28" value="&lt;span style=&quot;font-family: &amp;#34;roboto&amp;#34; , , &amp;#34;helvetica neue&amp;#34; , &amp;#34;helvetica&amp;#34; , &amp;#34;arial&amp;#34; , sans-serif ; font-size: 16px&quot;&gt;19岁的雪莱带着16岁的哈丽雅特&lt;b&gt;私奔&lt;/b&gt;到苏格兰，并在爱丁堡结婚。&lt;/span&gt;" style="rounded=1;whiteSpace=wrap;html=1;" vertex="1" parent="1">
          <mxGeometry x="297.5" y="855" width="215" height="90" as="geometry" />
        </mxCell>
        <mxCell id="Nt5zldpZcJnzgQMrTcaI-53" style="edgeStyle=orthogonalEdgeStyle;rounded=0;orthogonalLoop=1;jettySize=auto;html=1;exitX=0.5;exitY=1;exitDx=0;exitDy=0;fontSize=18;" edge="1" parent="1" source="Nt5zldpZcJnzgQMrTcaI-29">
          <mxGeometry relative="1" as="geometry">
            <mxPoint x="598" y="900" as="targetPoint" />
          </mxGeometry>
        </mxCell>
        <mxCell id="Nt5zldpZcJnzgQMrTcaI-29" value="&lt;span style=&quot;font-family: &amp;#34;roboto&amp;#34; , , &amp;#34;helvetica neue&amp;#34; , &amp;#34;helvetica&amp;#34; , &amp;#34;arial&amp;#34; , sans-serif ; font-size: 16px&quot;&gt;为了“拯救”这个可怜的小女孩&lt;/span&gt;" style="rounded=0;whiteSpace=wrap;html=1;" vertex="1" parent="1">
          <mxGeometry x="537.5" y="795" width="120" height="60" as="geometry" />
        </mxCell>
        <mxCell id="Nt5zldpZcJnzgQMrTcaI-32" value="&lt;font style=&quot;font-size: 16px&quot;&gt;(&lt;span style=&quot;font-family: &amp;#34;roboto&amp;#34; , , &amp;#34;helvetica neue&amp;#34; , &amp;#34;helvetica&amp;#34; , &amp;#34;arial&amp;#34; , sans-serif&quot;&gt;玛丽·葛德文&lt;/span&gt;)&lt;br&gt;玛丽·雪莱&lt;/font&gt;" style="shape=process;whiteSpace=wrap;html=1;backgroundOutline=1;" vertex="1" parent="1">
          <mxGeometry x="652.5" y="1100" width="140" height="60" as="geometry" />
        </mxCell>
        <mxCell id="Nt5zldpZcJnzgQMrTcaI-55" value="" style="edgeStyle=orthogonalEdgeStyle;rounded=0;orthogonalLoop=1;jettySize=auto;html=1;fontSize=18;" edge="1" parent="1" source="Nt5zldpZcJnzgQMrTcaI-33" target="Nt5zldpZcJnzgQMrTcaI-43">
          <mxGeometry relative="1" as="geometry" />
        </mxCell>
        <mxCell id="Nt5zldpZcJnzgQMrTcaI-33" value="&lt;span style=&quot;font-family: &amp;#34;roboto&amp;#34; , , &amp;#34;helvetica neue&amp;#34; , &amp;#34;helvetica&amp;#34; , &amp;#34;arial&amp;#34; , sans-serif ; font-size: 16px&quot;&gt;由于种种原因，雪莱逐渐觉得妻子并不追求先进，和自己不在一个思想高度，认为哈丽雅特嫁给他是贪图钱财罢了，这位风流才子开始后悔当年的一时冲动了。&lt;/span&gt;" style="rounded=0;whiteSpace=wrap;html=1;" vertex="1" parent="1">
          <mxGeometry x="-160" y="990" width="370" height="110" as="geometry" />
        </mxCell>
        <mxCell id="Nt5zldpZcJnzgQMrTcaI-38" value="妹妹" style="edgeStyle=orthogonalEdgeStyle;rounded=0;orthogonalLoop=1;jettySize=auto;html=1;" edge="1" parent="1" source="Nt5zldpZcJnzgQMrTcaI-34" target="Nt5zldpZcJnzgQMrTcaI-32">
          <mxGeometry relative="1" as="geometry" />
        </mxCell>
        <mxCell id="Nt5zldpZcJnzgQMrTcaI-34" value="&lt;span style=&quot;font-family: &amp;#34;roboto&amp;#34; , , &amp;#34;helvetica neue&amp;#34; , &amp;#34;helvetica&amp;#34; , &amp;#34;arial&amp;#34; , sans-serif ; font-size: 16px&quot;&gt;克莱尔·克莱尔蒙特&lt;/span&gt;" style="shape=process;whiteSpace=wrap;html=1;backgroundOutline=1;" vertex="1" parent="1">
          <mxGeometry x="862.5" y="1100" width="140" height="60" as="geometry" />
        </mxCell>
        <mxCell id="Nt5zldpZcJnzgQMrTcaI-36" value="" style="edgeStyle=orthogonalEdgeStyle;rounded=0;orthogonalLoop=1;jettySize=auto;html=1;" edge="1" parent="1" source="Nt5zldpZcJnzgQMrTcaI-35" target="Nt5zldpZcJnzgQMrTcaI-34">
          <mxGeometry relative="1" as="geometry" />
        </mxCell>
        <mxCell id="Nt5zldpZcJnzgQMrTcaI-37" value="" style="edgeStyle=orthogonalEdgeStyle;rounded=0;orthogonalLoop=1;jettySize=auto;html=1;" edge="1" parent="1" source="Nt5zldpZcJnzgQMrTcaI-35" target="Nt5zldpZcJnzgQMrTcaI-32">
          <mxGeometry relative="1" as="geometry" />
        </mxCell>
        <mxCell id="Nt5zldpZcJnzgQMrTcaI-42" value="" style="edgeStyle=orthogonalEdgeStyle;rounded=0;orthogonalLoop=1;jettySize=auto;html=1;" edge="1" parent="1" source="Nt5zldpZcJnzgQMrTcaI-35" target="Nt5zldpZcJnzgQMrTcaI-39">
          <mxGeometry relative="1" as="geometry" />
        </mxCell>
        <mxCell id="Nt5zldpZcJnzgQMrTcaI-35" value="&lt;span style=&quot;font-family: &amp;#34;roboto&amp;#34; , , &amp;#34;helvetica neue&amp;#34; , &amp;#34;helvetica&amp;#34; , &amp;#34;arial&amp;#34; , sans-serif ; font-size: 16px&quot;&gt;威廉·葛德文&lt;br&gt;（雪莱的人生导师）&lt;br&gt;&lt;/span&gt;" style="shape=process;whiteSpace=wrap;html=1;backgroundOutline=1;" vertex="1" parent="1">
          <mxGeometry x="622.5" y="990" width="200" height="60" as="geometry" />
        </mxCell>
        <mxCell id="Nt5zldpZcJnzgQMrTcaI-40" value="姐姐" style="edgeStyle=orthogonalEdgeStyle;rounded=0;orthogonalLoop=1;jettySize=auto;html=1;" edge="1" parent="1" source="Nt5zldpZcJnzgQMrTcaI-39" target="Nt5zldpZcJnzgQMrTcaI-32">
          <mxGeometry relative="1" as="geometry" />
        </mxCell>
        <mxCell id="Nt5zldpZcJnzgQMrTcaI-39" value="&lt;font style=&quot;font-size: 16px&quot;&gt;范妮·葛德文&lt;/font&gt;" style="shape=process;whiteSpace=wrap;html=1;backgroundOutline=1;" vertex="1" parent="1">
          <mxGeometry x="452.5" y="1100" width="120" height="60" as="geometry" />
        </mxCell>
        <mxCell id="Nt5zldpZcJnzgQMrTcaI-45" value="" style="edgeStyle=orthogonalEdgeStyle;rounded=0;orthogonalLoop=1;jettySize=auto;html=1;" edge="1" parent="1" source="Nt5zldpZcJnzgQMrTcaI-43" target="Nt5zldpZcJnzgQMrTcaI-44">
          <mxGeometry relative="1" as="geometry" />
        </mxCell>
        <mxCell id="Nt5zldpZcJnzgQMrTcaI-43" value="&lt;span style=&quot;font-family: &amp;#34;roboto&amp;#34; , , &amp;#34;helvetica neue&amp;#34; , &amp;#34;helvetica&amp;#34; , &amp;#34;arial&amp;#34; , sans-serif ; font-size: 16px&quot;&gt;这一次，雪莱再次用了当年的套路——&lt;b&gt;私奔&lt;/b&gt;。和葛德文撕破脸后，雪莱抛弃了怀孕中的妻子与幼年的女儿，带上玛丽踏上了前往法国之路，还顺带“拐走”了小姨子克莱尔·克莱尔蒙特。&lt;/span&gt;" style="rounded=0;whiteSpace=wrap;html=1;" vertex="1" parent="1">
          <mxGeometry x="-160" y="1180" width="370" height="130" as="geometry" />
        </mxCell>
        <mxCell id="Nt5zldpZcJnzgQMrTcaI-56" value="" style="edgeStyle=orthogonalEdgeStyle;rounded=0;orthogonalLoop=1;jettySize=auto;html=1;fontSize=18;" edge="1" parent="1" source="Nt5zldpZcJnzgQMrTcaI-44" target="Nt5zldpZcJnzgQMrTcaI-49">
          <mxGeometry relative="1" as="geometry" />
        </mxCell>
        <mxCell id="Nt5zldpZcJnzgQMrTcaI-44" value="&lt;span style=&quot;font-family: &amp;#34;roboto&amp;#34; , , &amp;#34;helvetica neue&amp;#34; , &amp;#34;helvetica&amp;#34; , &amp;#34;arial&amp;#34; , sans-serif ; font-size: 16px&quot;&gt;这桩惊天丑闻让葛德文一家的脸无处安置。谣言四起，玛丽的姐姐范妮因此失去了工作机会，更致命的是，她也疯狂地迷恋上了雪莱，多重打击下，范妮自杀了。&lt;/span&gt;" style="rounded=0;whiteSpace=wrap;html=1;" vertex="1" parent="1">
          <mxGeometry x="-160" y="1350" width="370" height="120" as="geometry" />
        </mxCell>
        <mxCell id="Nt5zldpZcJnzgQMrTcaI-46" value="&lt;span style=&quot;font-family: &amp;#34;roboto&amp;#34; , , &amp;#34;helvetica neue&amp;#34; , &amp;#34;helvetica&amp;#34; , &amp;#34;arial&amp;#34; , sans-serif ; font-size: 16px&quot;&gt;索菲亚斯泰西&lt;/span&gt;" style="shape=process;whiteSpace=wrap;html=1;backgroundOutline=1;" vertex="1" parent="1">
          <mxGeometry x="662.5" y="1209" width="120" height="60" as="geometry" />
        </mxCell>
        <mxCell id="Nt5zldpZcJnzgQMrTcaI-47" value="&lt;span style=&quot;font-family: &amp;#34;roboto&amp;#34; , , &amp;#34;helvetica neue&amp;#34; , &amp;#34;helvetica&amp;#34; , &amp;#34;arial&amp;#34; , sans-serif ; font-size: 16px&quot;&gt;一名修女&lt;/span&gt;" style="shape=process;whiteSpace=wrap;html=1;backgroundOutline=1;" vertex="1" parent="1">
          <mxGeometry x="662.5" y="1310" width="120" height="60" as="geometry" />
        </mxCell>
        <mxCell id="Nt5zldpZcJnzgQMrTcaI-48" value="&lt;span style=&quot;font-family: &amp;#34;roboto&amp;#34; , , &amp;#34;helvetica neue&amp;#34; , &amp;#34;helvetica&amp;#34; , &amp;#34;arial&amp;#34; , sans-serif ; font-size: 16px&quot;&gt;简·威廉姆斯&lt;/span&gt;" style="shape=process;whiteSpace=wrap;html=1;backgroundOutline=1;" vertex="1" parent="1">
          <mxGeometry x="662.5" y="1410" width="120" height="60" as="geometry" />
        </mxCell>
        <mxCell id="Nt5zldpZcJnzgQMrTcaI-49" value="&lt;span style=&quot;font-family: &amp;#34;roboto&amp;#34; , , &amp;#34;helvetica neue&amp;#34; , &amp;#34;helvetica&amp;#34; , &amp;#34;arial&amp;#34; , sans-serif ; font-size: 16px&quot;&gt;雪莱与克莱尔越来越暧昧，此后先是与索菲亚斯泰西有一段说不清的关系，随后又企图再次“拯救”一名修女于水火之中，接着与简·威廉姆斯打得火热。&lt;/span&gt;" style="rounded=0;whiteSpace=wrap;html=1;" vertex="1" parent="1">
          <mxGeometry x="-160" y="1540" width="370" height="130" as="geometry" />
        </mxCell>
        <mxCell id="Nt5zldpZcJnzgQMrTcaI-50" value="&#xa;&#xa;&lt;span style=&quot;color: rgb(0, 0, 0); font-size: 18px; font-style: normal; font-weight: 400; letter-spacing: normal; text-indent: 0px; text-transform: none; word-spacing: 0px; display: inline; float: none;&quot;&gt;雪莱一生向往自由，并且尊重女性，他的爱情婚姻观念主要受葛德文影响，他认为：“一个丈夫和一个妻子，只要他们彼此相爱，自然就结合在一起：在俩人感情已经消亡后，任何法律仍然会把他们绑在一起生活一段时间，因此它是一种最令人难堪的专制。爱就是自由；承诺爱同一个女人到永远，就和承诺信奉一个信条一样荒唐。”&lt;/span&gt;&#xa;&#xa;" style="rounded=0;whiteSpace=wrap;html=1;fontSize=18;" vertex="1" parent="1">
          <mxGeometry x="537.5" y="1510" width="370" height="195" as="geometry" />
        </mxCell>
        <mxCell id="Nt5zldpZcJnzgQMrTcaI-63" value="" style="edgeStyle=orthogonalEdgeStyle;rounded=0;orthogonalLoop=1;jettySize=auto;html=1;fontSize=18;" edge="1" parent="1" source="Nt5zldpZcJnzgQMrTcaI-58" target="Nt5zldpZcJnzgQMrTcaI-62">
          <mxGeometry relative="1" as="geometry" />
        </mxCell>
        <mxCell id="Nt5zldpZcJnzgQMrTcaI-58" value="1819年8月，曼彻斯特八万工人举行了声势浩大的游行示威，反动当局竞出动军队野蛮镇压，制造了历史上著名的彼得卢大屠杀事件。雪莱满怀悲愤，写下了长诗《暴政的假面游行》，对资产阶级政府的血腥暴行提出严正抗议。" style="rounded=1;whiteSpace=wrap;html=1;fontSize=18;" vertex="1" parent="1">
          <mxGeometry x="20" y="2110" width="700" height="150" as="geometry" />
        </mxCell>
        <mxCell id="Nt5zldpZcJnzgQMrTcaI-60" value="" style="edgeStyle=orthogonalEdgeStyle;rounded=0;orthogonalLoop=1;jettySize=auto;html=1;fontSize=18;" edge="1" parent="1" source="Nt5zldpZcJnzgQMrTcaI-59" target="Nt5zldpZcJnzgQMrTcaI-58">
          <mxGeometry relative="1" as="geometry" />
        </mxCell>
        <mxCell id="Nt5zldpZcJnzgQMrTcaI-59" value="当时，欧洲各国的工人运动和革命运动风起云涌。英国工人阶级为了争取自身的生存权利，正同资产阶级展开英勇的斗争，捣毁机器和罢工事件接连不断。" style="rounded=1;whiteSpace=wrap;html=1;fontSize=18;" vertex="1" parent="1">
          <mxGeometry x="50" y="1880" width="640" height="136" as="geometry" />
        </mxCell>
        <mxCell id="Nt5zldpZcJnzgQMrTcaI-64" value="" style="edgeStyle=orthogonalEdgeStyle;rounded=0;orthogonalLoop=1;jettySize=auto;html=1;fontSize=18;" edge="1" parent="1" source="Nt5zldpZcJnzgQMrTcaI-61" target="Nt5zldpZcJnzgQMrTcaI-62">
          <mxGeometry relative="1" as="geometry" />
        </mxCell>
        <mxCell id="Nt5zldpZcJnzgQMrTcaI-61" value="同年秋天，西风颂" style="rounded=0;whiteSpace=wrap;html=1;fontSize=18;" vertex="1" parent="1">
          <mxGeometry x="-310" y="2400" width="310" height="90" as="geometry" />
        </mxCell>
        <mxCell id="Nt5zldpZcJnzgQMrTcaI-62" value="在意大利和希腊，民族解放运动方兴未艾，雪莱的《西风颂》发表不久，这两个国家也先后爆发了轰轰烈烈的武装起义。面对着欧洲山雨欲来风满楼的革命形势，雪莱为之鼓舞，为之振奋。这时，在一场暴风骤雨的自然景象的触发下，这种难以抑制的激情立刻冲出胸膛，一泻千里，化作激昂慷慨的歌唱。这时诗人正旅居意大利，处于创作的高峰期。" style="rounded=1;whiteSpace=wrap;html=1;fontSize=18;" vertex="1" parent="1">
          <mxGeometry x="75" y="2350" width="590" height="190" as="geometry" />
        </mxCell>
      </root>
    </mxGraphModel>
  </diagram>
</mxfile>
